<svg xmlns="http://www.w3.org/2000/svg" viewBox="0 0 32 32">
  <defs>
    <linearGradient id="goldGradient" x1="0%" y1="0%" x2="100%" y2="100%">
      <stop offset="0%" style="stop-color:#F4E4C1;stop-opacity:1" />
      <stop offset="50%" style="stop-color:#D4AF37;stop-opacity:1" />
      <stop offset="100%" style="stop-color:#B8941E;stop-opacity:1" />
    </linearGradient>
  </defs>
  
  <!-- Background shield -->
  <path d="M16 2 L28 6 L28 14 Q28 22 16 30 Q4 22 4 14 L4 6 Z" fill="#1a1a1a"/>
  <path d="M16 3 L27 6.5 L27 14 Q27 21.5 16 29 Q5 21.5 5 14 L5 6.5 Z" fill="#0a0a0a"/>
  
  <!-- Stylized Z -->
  <path d="M10 9 L22 9 L22 11 L13.5 20 L22 20 L22 23 L10 23 L10 21 L18.5 12 L10 12 Z" 
        fill="url(#goldGradient)" 
        stroke="#D4AF37" 
        stroke-width="0.5"/>
  
  <!-- Subtle accent lines -->
  <line x1="10" y1="9" x2="22" y2="9" stroke="#F4E4C1" stroke-width="0.5" opacity="0.6"/>
  <line x1="10" y1="23" x2="22" y2="23" stroke="#F4E4C1" stroke-width="0.5" opacity="0.6"/>
</svg>